<?xml version="1.0" encoding="utf-8"?>
<!-- Designed by Vexels.com - 2017 All Rights Reserved - https://vexels.com/terms-and-conditions/  -->

<svg version="1.1" id="Layer_1" xmlns="http://www.w3.org/2000/svg" xmlns:xlink="http://www.w3.org/1999/xlink" x="0px" y="0px"
	 width="1200px" height="1200px" viewBox="0 0 1200 1200" enable-background="new 0 0 1200 1200" xml:space="preserve">
<g>
	<path fill="#FFFFFF" d="M1073.877,899.219c0,91.758-74.38,166.142-166.138,166.142H243.247
		c-91.746,0-166.137-74.385-166.137-166.142V234.733c0-91.758,74.392-166.138,166.137-166.138h664.492
		c91.758,0,166.138,74.38,166.138,166.138V899.219z"/>
	<linearGradient id="SVGID_1_" gradientUnits="userSpaceOnUse" x1="113.0822" y1="590.655" x2="1109.8601" y2="590.655">
		<stop  offset="0" style="stop-color:#E12028"/>
		<stop  offset="1" style="stop-color:#841315"/>
	</linearGradient>
	<path fill="url(#SVGID_1_)" d="M1109.86,922.898c0,91.758-74.369,166.138-166.148,166.138H279.23
		c-91.746,0-166.148-74.38-166.148-166.138V258.412c0-91.758,74.402-166.138,166.148-166.138h664.482
		c91.78,0,166.148,74.38,166.148,166.138V922.898z"/>
	<path fill="#ED1C24" d="M1094.26,914.484c0,91.756-74.369,166.137-166.137,166.137H263.63c-91.745,0-166.136-74.38-166.136-166.137
		V249.997c0-91.756,74.392-166.136,166.136-166.136h664.493c91.768,0,166.137,74.38,166.137,166.136V914.484z"/>
	<path fill="#FFFFFF" d="M1075.821,571.141V260.373c0-87.366-71.62-158.187-160.002-158.187H275.934
		c-88.371,0-160.002,70.821-160.002,158.187v310.768H1075.821z"/>
	<g opacity="0.25">
		<g>
			<defs>
				<path id="SVGID_2_" d="M1097.444,914.171c0,91.758-74.369,166.138-166.115,166.138H266.826
					c-91.756,0-166.125-74.38-166.125-166.138V249.684c0-91.757,74.369-166.143,166.125-166.143h664.504
					c91.746,0,166.115,74.386,166.115,166.143V914.171z"/>
			</defs>
			<clipPath id="SVGID_3_">
				<use xlink:href="#SVGID_2_"  overflow="visible"/>
			</clipPath>
			<g opacity="0.69" clip-path="url(#SVGID_3_)">
				<g>
					<polygon fill="#8F9194" points="239.515,102.159 291.534,154.166 239.515,206.18 					"/>
					<polygon fill="#8F9194" points="184.78,156.882 236.799,208.895 184.78,260.904 					"/>
					<polygon fill="#8F9194" points="238.307,210.399 290.326,262.407 238.307,314.42 					"/>
					<polygon fill="#8F9194" points="291.813,263.91 343.832,315.924 291.813,367.931 					"/>
					<polygon fill="#8F9194" points="345.341,317.426 397.361,369.434 345.341,421.447 					"/>
					<polygon fill="#8F9194" points="398.836,370.937 450.855,422.951 398.836,474.959 					"/>
					<polygon fill="#8F9194" points="452.375,424.453 504.382,476.462 452.375,528.476 					"/>
					<polygon fill="#8F9194" points="505.868,477.97 557.888,529.978 505.868,581.986 					"/>
					<polygon fill="#8F9194" points="559.396,531.482 611.415,583.495 559.396,635.503 					"/>
					<polygon fill="#8F9194" points="612.901,584.998 664.909,637.005 612.901,689.02 					"/>
					<polygon fill="#8F9194" points="666.429,638.509 718.448,690.522 666.429,742.53 					"/>
					<polygon fill="#8F9194" points="719.923,692.026 771.942,744.034 719.923,796.047 					"/>
					<polygon fill="#8F9194" points="773.451,745.542 825.471,797.549 773.451,849.558 					"/>
					<polygon fill="#8F9194" points="826.957,799.053 878.976,851.066 826.957,903.074 					"/>
					<polygon fill="#8F9194" points="880.484,852.569 932.504,904.578 880.484,956.591 					"/>
					<polygon fill="#8F9194" points="933.978,906.08 985.998,958.094 933.978,1010.101 					"/>
					<polygon fill="#8F9194" points="987.506,959.597 1039.525,1011.605 987.506,1063.618 					"/>
					<polygon fill="#8F9194" points="294.249,156.888 346.268,208.901 294.249,260.909 					"/>
					<polygon fill="#8F9194" points="348.972,211.622 400.991,263.63 348.972,315.644 					"/>
					<polygon fill="#8F9194" points="403.707,266.351 455.726,318.364 403.707,370.373 					"/>
					<polygon fill="#8F9194" points="458.443,321.086 510.461,373.094 458.443,425.102 					"/>
					<polygon fill="#8F9194" points="513.177,375.816 565.185,427.823 513.177,479.837 					"/>
					<polygon fill="#8F9194" points="567.9,430.55 619.919,482.558 567.9,534.566 					"/>
					<polygon fill="#8F9194" points="622.635,485.279 674.654,537.287 622.635,589.3 					"/>
					<polygon fill="#8F9194" points="677.369,540.008 729.389,592.021 677.369,644.029 					"/>
					<polygon fill="#8F9194" points="732.093,594.742 784.112,646.75 732.093,698.764 					"/>
					<polygon fill="#8F9194" points="786.827,649.471 838.846,701.485 786.827,753.492 					"/>
					<polygon fill="#8F9194" points="841.562,704.206 893.581,756.214 841.562,808.227 					"/>
					<polygon fill="#8F9194" points="896.296,758.935 948.304,810.942 896.296,862.957 					"/>
					<polygon fill="#8F9194" points="951.019,813.669 1003.039,865.677 951.019,917.686 					"/>
					<polygon fill="#8F9194" points="1005.755,868.398 1057.774,920.407 1005.755,972.42 					"/>
				</g>
				<g>
					<polygon fill="#8F9194" points="131.923,107.059 183.943,159.072 131.923,211.081 					"/>
					<polygon fill="#8F9194" points="189.765,56.297 241.784,108.305 189.765,160.318 					"/>
				</g>
				<g>
					<polygon fill="#8F9194" points="132.984,205.108 185.003,257.121 132.984,309.129 					"/>
					<polygon fill="#8F9194" points="131.755,313.348 183.774,365.355 131.755,417.369 					"/>
					<polygon fill="#8F9194" points="185.284,366.864 237.303,418.871 185.284,470.88 					"/>
					<polygon fill="#8F9194" points="238.788,420.375 290.807,472.388 238.788,524.396 					"/>
					<polygon fill="#8F9194" points="292.316,473.892 344.336,525.9 292.316,577.913 					"/>
					<polygon fill="#8F9194" points="345.822,527.402 397.83,579.416 345.822,631.424 					"/>
					<polygon fill="#8F9194" points="399.349,580.919 451.357,632.927 399.349,684.94 					"/>
					<polygon fill="#8F9194" points="452.844,634.435 504.863,686.444 452.844,738.452 					"/>
					<polygon fill="#8F9194" points="506.371,687.946 558.39,739.96 506.371,791.968 					"/>
					<polygon fill="#8F9194" points="559.876,741.463 611.896,793.471 559.876,845.485 					"/>
					<polygon fill="#8F9194" points="613.404,794.974 665.423,846.987 613.404,898.996 					"/>
					<polygon fill="#8F9194" points="666.898,848.491 718.917,900.498 666.898,952.512 					"/>
					<polygon fill="#8F9194" points="720.426,902.002 772.445,954.015 720.426,1006.023 					"/>
					<polygon fill="#8F9194" points="773.932,955.518 825.951,1007.525 773.932,1059.54 					"/>
					<polygon fill="#8F9194" points="827.459,1009.035 879.478,1061.043 827.459,1113.045 					"/>
					<polygon fill="#8F9194" points="187.719,259.842 239.738,311.85 187.719,363.858 					"/>
					<polygon fill="#8F9194" points="242.454,314.571 294.472,366.579 242.454,418.592 					"/>
					<polygon fill="#8F9194" points="297.189,369.3 349.197,421.313 297.189,473.321 					"/>
					<polygon fill="#8F9194" points="351.912,424.034 403.931,476.042 351.912,528.057 					"/>
					<polygon fill="#8F9194" points="406.647,478.763 458.666,530.777 406.647,582.786 					"/>
					<polygon fill="#8F9194" points="461.381,533.498 513.401,585.507 461.381,637.52 					"/>
					<polygon fill="#8F9194" points="516.116,588.228 568.123,640.241 516.116,692.249 					"/>
					<polygon fill="#8F9194" points="570.839,642.963 622.858,694.97 570.839,746.978 					"/>
					<polygon fill="#8F9194" points="625.573,697.691 677.593,749.705 625.573,801.712 					"/>
					<polygon fill="#8F9194" points="680.308,752.42 732.316,804.434 680.308,856.441 					"/>
					<polygon fill="#8F9194" points="735.031,807.155 787.051,859.162 735.031,911.176 					"/>
					<polygon fill="#8F9194" points="789.767,861.884 841.786,913.897 789.767,965.905 					"/>
					<polygon fill="#8F9194" points="844.501,916.618 896.521,968.626 844.501,1020.639 					"/>
					<polygon fill="#8F9194" points="899.236,971.347 951.244,1023.36 899.236,1075.369 					"/>
				</g>
				<polygon fill="#8F9194" points="120.424,510.048 172.443,562.061 120.424,614.07 				"/>
				<polygon fill="#8F9194" points="173.93,563.565 225.949,615.572 173.93,667.586 				"/>
				<polygon fill="#8F9194" points="227.457,617.075 279.476,669.089 227.457,721.097 				"/>
				<polygon fill="#8F9194" points="280.951,670.592 332.97,722.6 280.951,774.613 				"/>
				<polygon fill="#8F9194" points="334.478,724.103 386.498,776.117 334.478,828.124 				"/>
				<polygon fill="#8F9194" points="387.984,777.619 440.003,829.628 387.984,881.641 				"/>
				<polygon fill="#8F9194" points="441.513,831.136 493.532,883.144 441.513,935.157 				"/>
				<polygon fill="#8F9194" points="495.017,884.647 547.026,936.661 495.017,988.668 				"/>
				<polygon fill="#8F9194" points="548.545,938.163 600.553,990.171 548.545,1042.186 				"/>
				<polygon fill="#8F9194" points="602.04,991.675 654.059,1043.688 602.04,1095.696 				"/>
				<polygon fill="#8F9194" points="657.802,1045.985 709.821,1097.992 657.802,1150 				"/>
				<polygon fill="#8F9194" points="124.066,404.244 176.086,456.251 124.066,508.266 				"/>
				<polygon fill="#8F9194" points="178.802,458.978 230.81,510.987 178.802,562.995 				"/>
				<polygon fill="#8F9194" points="233.525,513.707 285.544,565.716 233.525,617.729 				"/>
				<polygon fill="#8F9194" points="288.26,568.437 340.279,620.451 288.26,672.458 				"/>
				<polygon fill="#8F9194" points="342.994,623.172 395.002,675.179 342.994,727.193 				"/>
				<polygon fill="#8F9194" points="397.718,677.901 449.737,729.914 397.718,781.922 				"/>
				<polygon fill="#8F9194" points="452.452,732.635 504.471,784.643 452.452,836.656 				"/>
				<polygon fill="#8F9194" points="507.187,787.364 559.206,839.372 507.187,891.385 				"/>
				<polygon fill="#8F9194" points="561.921,842.099 613.929,894.106 561.921,946.114 				"/>
				<polygon fill="#8F9194" points="616.644,896.827 668.664,948.835 616.644,1000.849 				"/>
				<polygon fill="#8F9194" points="671.379,951.556 723.398,1003.57 671.379,1055.578 				"/>
				<polygon fill="#8F9194" points="726.115,1006.291 778.134,1058.3 726.115,1110.319 				"/>
				<polygon fill="#8F9194" points="128.794,713.912 180.813,765.925 128.794,817.933 				"/>
				<polygon fill="#8F9194" points="182.322,767.428 234.341,819.435 182.322,871.449 				"/>
				<polygon fill="#8F9194" points="235.816,820.945 287.835,872.953 235.816,924.96 				"/>
				<polygon fill="#8F9194" points="289.355,874.455 341.363,926.468 289.355,978.477 				"/>
				<polygon fill="#8F9194" points="342.849,927.972 394.868,979.98 342.849,1031.993 				"/>
				<polygon fill="#8F9194" points="449.938,1040.855 501.957,1092.864 449.938,1144.871 				"/>
				<polygon fill="#8F9194" points="394.198,986.55 446.217,1038.559 394.198,1090.573 				"/>
				<polygon fill="#8F9194" points="120.569,610.543 172.589,662.552 120.569,714.565 				"/>
				<polygon fill="#8F9194" points="175.293,665.273 227.312,717.286 175.293,769.294 				"/>
				<polygon fill="#8F9194" points="230.027,720.008 282.046,772.015 230.027,824.029 				"/>
				<polygon fill="#8F9194" points="284.762,774.737 336.781,826.75 284.762,878.758 				"/>
				<polygon fill="#8F9194" points="339.496,829.471 391.504,881.479 339.496,933.492 				"/>
				<polygon fill="#8F9194" points="394.219,884.2 446.239,936.213 394.219,988.221 				"/>
				<polygon fill="#8F9194" points="448.954,938.935 500.973,990.942 448.954,1042.95 				"/>
				<polygon fill="#8F9194" points="501.51,990.769 553.518,1042.777 501.51,1094.79 				"/>
				<polygon fill="#8F9194" points="551.451,1038.553 603.47,1090.561 551.451,1142.569 				"/>
				<polygon fill="#8F9194" points="129.52,916.021 181.54,968.034 129.52,1020.042 				"/>
				<polygon fill="#8F9194" points="183.026,969.537 235.033,1021.544 183.026,1073.559 				"/>
				<polygon fill="#8F9194" points="236.553,1023.054 288.561,1075.062 236.553,1127.069 				"/>
				<polygon fill="#8F9194" points="128.627,812.921 180.646,864.929 128.627,916.936 				"/>
				<polygon fill="#8F9194" points="183.361,867.65 235.369,919.658 183.361,971.671 				"/>
				<polygon fill="#8F9194" points="238.084,922.379 290.103,974.392 238.084,1026.401 				"/>
				<polygon fill="#8F9194" points="292.819,977.113 344.838,1029.121 292.819,1081.135 				"/>
				<polygon fill="#8F9194" points="342.045,1027.791 394.052,1079.805 342.045,1131.819 				"/>
				<g>
					<polygon fill="#8F9194" points="291.668,50 343.687,102.013 291.668,154.021 					"/>
					<polygon fill="#8F9194" points="345.173,103.517 397.192,155.525 345.173,207.538 					"/>
					<polygon fill="#8F9194" points="398.701,157.027 450.72,209.041 398.701,261.049 					"/>
					<polygon fill="#8F9194" points="452.206,210.544 504.215,262.552 452.206,314.565 					"/>
					<polygon fill="#8F9194" points="505.735,264.06 557.742,316.069 505.735,368.077 					"/>
					<polygon fill="#8F9194" points="559.229,317.571 611.248,369.585 559.229,421.593 					"/>
					<polygon fill="#8F9194" points="612.756,371.088 664.775,423.096 612.756,475.11 					"/>
					<polygon fill="#8F9194" points="666.262,424.599 718.281,476.612 666.262,528.621 					"/>
					<polygon fill="#8F9194" points="719.789,478.116 771.808,530.123 719.789,582.137 					"/>
					<polygon fill="#8F9194" points="773.283,531.627 825.302,583.64 773.283,635.648 					"/>
					<polygon fill="#8F9194" points="826.812,585.143 878.831,637.151 826.812,689.165 					"/>
					<polygon fill="#8F9194" points="880.316,638.66 932.335,690.668 880.316,742.675 					"/>
					<polygon fill="#8F9194" points="933.845,692.17 985.864,744.185 933.845,796.192 					"/>
					<polygon fill="#8F9194" points="987.35,745.687 1039.358,797.695 987.35,849.708 					"/>
					<polygon fill="#8F9194" points="1040.877,799.198 1092.885,851.212 1040.877,903.219 					"/>
					<polygon fill="#8F9194" points="401.137,50.006 453.156,102.019 401.137,154.027 					"/>
					<polygon fill="#8F9194" points="455.871,104.74 507.88,156.748 455.871,208.761 					"/>
					<polygon fill="#8F9194" points="510.596,159.469 562.615,211.483 510.596,263.49 					"/>
					<polygon fill="#8F9194" points="565.33,214.204 617.35,266.211 565.33,318.225 					"/>
					<polygon fill="#8F9194" points="620.065,268.933 672.084,320.946 620.065,372.955 					"/>
					<polygon fill="#8F9194" points="674.788,323.667 726.807,375.675 674.788,427.684 					"/>
					<polygon fill="#8F9194" points="729.523,378.396 781.542,430.405 729.523,482.418 					"/>
					<polygon fill="#8F9194" points="784.257,433.131 836.276,485.139 784.257,537.147 					"/>
					<polygon fill="#8F9194" points="838.992,487.861 891,539.868 838.992,591.882 					"/>
					<polygon fill="#8F9194" points="893.715,542.589 945.734,594.603 893.715,646.61 					"/>
					<polygon fill="#8F9194" points="948.449,597.324 1000.469,649.332 948.449,701.345 					"/>
					<polygon fill="#8F9194" points="1003.184,652.053 1055.203,704.066 1003.184,756.074 					"/>
					<polygon fill="#8F9194" points="1057.908,706.787 1109.927,758.795 1057.908,810.809 					"/>
				</g>
				<g>
					<polygon fill="#8F9194" points="512.216,53.413 564.235,105.427 512.216,157.436 					"/>
					<polygon fill="#8F9194" points="565.722,106.931 617.74,158.938 565.722,210.952 					"/>
					<polygon fill="#8F9194" points="619.249,160.442 671.268,212.455 619.249,264.463 					"/>
					<polygon fill="#8F9194" points="672.754,213.958 724.762,265.965 672.754,317.98 					"/>
					<polygon fill="#8F9194" points="726.282,267.475 778.289,319.482 726.282,371.49 					"/>
					<polygon fill="#8F9194" points="779.776,320.985 831.795,372.999 779.776,425.007 					"/>
					<polygon fill="#8F9194" points="833.304,374.502 885.322,426.51 833.304,478.523 					"/>
					<polygon fill="#8F9194" points="886.809,428.013 938.828,480.027 886.809,532.034 					"/>
					<polygon fill="#8F9194" points="940.337,481.529 992.357,533.538 940.337,585.551 					"/>
					<polygon fill="#8F9194" points="993.831,535.04 1045.851,587.054 993.831,639.062 					"/>
					<polygon fill="#8F9194" points="1047.359,588.557 1099.378,640.565 1047.359,692.579 					"/>
					<polygon fill="#8F9194" points="624.121,55.855 676.141,107.863 624.121,159.877 					"/>
					<polygon fill="#8F9194" points="678.856,110.59 730.864,162.598 678.856,214.607 					"/>
					<polygon fill="#8F9194" points="733.579,165.319 785.598,217.328 733.579,269.341 					"/>
					<polygon fill="#8F9194" points="788.314,220.048 840.333,272.062 788.314,324.07 					"/>
					<polygon fill="#8F9194" points="843.048,274.783 895.056,326.791 843.048,378.805 					"/>
					<polygon fill="#8F9194" points="897.771,329.512 949.79,381.526 897.771,433.533 					"/>
					<polygon fill="#8F9194" points="952.506,384.247 1004.525,436.255 952.506,488.268 					"/>
					<polygon fill="#8F9194" points="1007.241,438.976 1059.26,490.989 1007.241,542.997 					"/>
					<polygon fill="#8F9194" points="1061.975,493.71 1113.984,545.718 1061.975,597.726 					"/>
				</g>
				<g>
					<polygon fill="#8F9194" points="737.613,63.6 789.632,115.608 737.613,167.621 					"/>
					<polygon fill="#8F9194" points="791.107,117.116 843.126,169.125 791.107,221.133 					"/>
					<polygon fill="#8F9194" points="844.635,170.627 896.655,222.641 844.635,274.648 					"/>
					<polygon fill="#8F9194" points="898.141,224.144 950.16,276.152 898.141,328.165 					"/>
					<polygon fill="#8F9194" points="951.668,277.655 1003.687,329.668 951.668,381.677 					"/>
					<polygon fill="#8F9194" points="1005.162,331.172 1057.182,383.179 1005.162,435.193 					"/>
					<polygon fill="#8F9194" points="1058.69,384.687 1110.709,436.696 1058.69,488.704 					"/>
					<polygon fill="#8F9194" points="851.943,68.477 903.962,120.486 851.943,172.499 					"/>
					<polygon fill="#8F9194" points="906.677,123.207 958.686,175.215 906.677,227.228 					"/>
					<polygon fill="#8F9194" points="961.402,177.942 1013.421,229.949 961.402,281.957 					"/>
					<polygon fill="#8F9194" points="1016.136,232.671 1068.156,284.678 1016.136,336.692 					"/>
					<polygon fill="#8F9194" points="1070.871,287.399 1122.89,339.413 1070.871,391.421 					"/>
				</g>
				<g>
					<polygon fill="#8F9194" points="955.836,68.405 1007.855,120.418 955.836,172.426 					"/>
					<polygon fill="#8F9194" points="1009.341,121.922 1061.35,173.93 1009.341,225.943 					"/>
					<polygon fill="#8F9194" points="1062.87,175.432 1114.878,227.446 1062.87,279.454 					"/>
				</g>
			</g>
		</g>
	</g>
	<g>
		<g>
			<g>
				<polygon fill="#3B3B3C" points="344.782,179.774 411.865,353.298 411.865,513.713 458.52,513.713 458.52,351.85 511.02,182.696 
					468.723,182.696 432.281,294.987 391.438,179.774 				"/>
			</g>
			<g>
				<g>
					<path fill="#3B3B3C" d="M585.087,263.038c-61.864,0-59.517,54.807-59.517,54.807s0,118.241,0,143.307
						c0,25.048,13.32,53.231,64.211,53.231c57.159,0,57.942-47.755,57.942-47.755s0-134.685,0-146.425
						C647.723,308.458,642.236,263.038,585.087,263.038z M612.365,450.966c0,0-0.335,25.602-24.417,25.602
						c-21.444,0-27.042-8.079-27.042-25.602c0-17.522,0-123.013,0-123.013s-0.996-27.104,25.076-27.104
						c24.092,0,26.383,20.533,26.383,28.747C612.365,337.804,612.365,450.966,612.365,450.966z"/>
				</g>
			</g>
			<g>
				<path fill="#3B3B3C" d="M687.359,264.686v215.089c0,0-4.101,36.95,36.934,36.95c36.117,0,50.913-27.094,50.913-27.094v23.803
					h41.861V263.87h-44.342v178.966c0,0,2.012,32.413-28.72,37.76c-18.886,3.285-18.058-22.987-18.058-22.987V264.686H687.359z"/>
			</g>
		</g>
	</g>
	<g>
		<g>
			<linearGradient id="SVGID_4_" gradientUnits="userSpaceOnUse" x1="506.9858" y1="955.4471" x2="505.8524" y2="805.2362">
				<stop  offset="0" style="stop-color:#E12028"/>
				<stop  offset="1" style="stop-color:#841315"/>
			</linearGradient>
			<path fill="url(#SVGID_4_)" d="M438.807,721.684v215.093c0,0,0.637,36.944,41.671,36.944c36.118,0,50.891-27.093,50.891-27.093
				v23.802h41.884V720.868h-44.342v178.965c0,0,2.011,32.418-28.72,37.766c-18.886,3.285-18.058-22.987-18.058-22.987V721.684
				H438.807z"/>
			<linearGradient id="SVGID_5_" gradientUnits="userSpaceOnUse" x1="358.3572" y1="956.5621" x2="357.2239" y2="806.3546">
				<stop  offset="0" style="stop-color:#E12028"/>
				<stop  offset="1" style="stop-color:#841315"/>
			</linearGradient>
			<polygon fill="url(#SVGID_5_)" points="432.035,638.492 280.168,638.492 280.168,676.817 334.356,676.817 334.356,976.181 
				374.585,976.181 374.585,676.817 432.035,676.817 			"/>
			<linearGradient id="SVGID_6_" gradientUnits="userSpaceOnUse" x1="676.1298" y1="954.1688" x2="674.9965" y2="803.9596">
				<stop  offset="0" style="stop-color:#E12028"/>
				<stop  offset="1" style="stop-color:#841315"/>
			</linearGradient>
			<path fill="url(#SVGID_6_)" d="M741.58,785.162c0,0,4.504-66.244-38.587-66.244c-31.11,0-46.342,15.779-53.136,26.445V641.521
				H609.37v331.66h40.487v-20.539c9.375,12.281,26.294,21.59,51.215,21.59c41.794,0,40.509-40.51,40.509-40.51V785.162z
				 M702.993,924.072c0,0-0.861,19.399-29.178,18.338c-22.036-0.832-24.047-21.898-24.584-39.559
				c-0.481-16.188,0.391-111.905,0.391-111.905s1.218-32.162,34.083-32.162c19.287,0,19.287,21.216,19.287,21.216V924.072z"/>
			<linearGradient id="SVGID_7_" gradientUnits="userSpaceOnUse" x1="846.9275" y1="952.8854" x2="845.7941" y2="802.6714">
				<stop  offset="0" style="stop-color:#E12028"/>
				<stop  offset="1" style="stop-color:#841315"/>
			</linearGradient>
			<path fill="url(#SVGID_7_)" d="M821.335,852.681h90.684v-82.968c0,0,1.286-51.432-67.529-51.432c0,0-64.301-5.799-64.301,62.379
				c0,80.387,0,136.333,0,136.333s-1.944,55.316,66.871,55.316c63.674,0,64.959-57.88,64.959-82.968h-40.52
				c0,0,1.945,51.455-26.361,51.455c-25.098,0-23.803-23.803-23.803-43.727C821.335,884.853,821.335,852.681,821.335,852.681z
				 M820.687,824.386v-47.593c0,0-0.626-18.009,24.451-18.009c25.076,0,26.361,18.009,26.361,18.009l0.637,46.945L820.687,824.386z"
				/>
		</g>
		<g>
			<linearGradient id="SVGID_8_" gradientUnits="userSpaceOnUse" x1="513.7578" y1="963.337" x2="512.6245" y2="813.1254">
				<stop  offset="0" style="stop-color:#DCDDDE"/>
				<stop  offset="1" style="stop-color:#FFFFFF"/>
			</linearGradient>
			<path fill="url(#SVGID_8_)" d="M445.579,729.579v215.089c0,0,0.637,36.944,41.671,36.944c36.118,0,50.891-27.094,50.891-27.094
				v23.803h41.884V728.757h-44.342v178.972c0,0,2.011,32.413-28.72,37.76c-18.886,3.285-18.07-22.987-18.07-22.987V729.579H445.579z
				"/>
			<linearGradient id="SVGID_9_" gradientUnits="userSpaceOnUse" x1="365.1293" y1="964.4564" x2="363.9959" y2="814.2469">
				<stop  offset="0" style="stop-color:#DCDDDE"/>
				<stop  offset="1" style="stop-color:#FFFFFF"/>
			</linearGradient>
			<polygon fill="url(#SVGID_9_)" points="438.807,646.382 286.94,646.382 286.94,684.706 341.128,684.706 341.128,984.075 
				381.357,984.075 381.357,684.706 438.807,684.706 			"/>
			<linearGradient id="SVGID_10_" gradientUnits="userSpaceOnUse" x1="682.9019" y1="962.0577" x2="681.7685" y2="811.8484">
				<stop  offset="0" style="stop-color:#DCDDDE"/>
				<stop  offset="1" style="stop-color:#FFFFFF"/>
			</linearGradient>
			<path fill="url(#SVGID_10_)" d="M748.352,793.052c0,0,4.504-66.245-38.587-66.245c-31.11,0-46.342,15.779-53.136,26.451V649.41
				h-40.487v331.659h40.487v-20.533c9.375,12.276,26.294,21.584,51.215,21.584c41.794,0,40.509-40.509,40.509-40.509V793.052z
				 M709.765,931.967c0,0-0.86,19.394-29.178,18.333c-22.036-0.833-24.048-21.897-24.584-39.56
				c-0.481-16.186,0.391-111.905,0.391-111.905s1.218-32.161,34.083-32.161c19.287,0,19.287,21.216,19.287,21.216V931.967z"/>
			<linearGradient id="SVGID_11_" gradientUnits="userSpaceOnUse" x1="853.6943" y1="960.7753" x2="852.5609" y2="810.5607">
				<stop  offset="0" style="stop-color:#DCDDDE"/>
				<stop  offset="1" style="stop-color:#FFFFFF"/>
			</linearGradient>
			<path fill="url(#SVGID_11_)" d="M828.107,860.571h90.684v-82.962c0,0,1.285-51.439-67.529-51.439c0,0-64.311-5.799-64.311,62.379
				c0,80.387,0,136.34,0,136.34s-1.945,55.31,66.882,55.31c63.674,0,64.959-57.88,64.959-82.962h-40.52
				c0,0,1.944,51.449-26.361,51.449c-25.098,0-23.803-23.797-23.803-43.727C828.107,892.743,828.107,860.571,828.107,860.571z
				 M827.459,832.276v-47.588c0,0-0.626-18.014,24.451-18.014c25.076,0,26.361,18.014,26.361,18.014l0.626,46.945L827.459,832.276z"
				/>
		</g>
	</g>
</g>
</svg>
